<svg width="200" height="200" viewBox="0 0 200 200" xmlns="http://www.w3.org/2000/svg">
  <rect width="200" height="200" rx="40" fill="#E8F8F0"/>
  <circle cx="100" cy="100" r="55" fill="#25D366"/>
  <path d="M100 52C73.5 52 52 73.5 52 100c0 8.4 2.2 16.3 6.1 23.1L52 148l25.3-6.6C84 145.5 91.8 148 100 148c26.5 0 48-21.5 48-48S126.5 52 100 52z" fill="white"/>
  <path d="M80 86c1.5-3.3 3.2-3.4 4.6-3.4.9 0 1.9 0 2.7.1.9.1 2.1-.3 3.3 2.5 1.3 2.9 4.3 10.5 4.7 11.3.4.8.6 1.7.1 2.7-.5 1-1 1.7-1.9 2.7-.9 1-1.9 2.2-2.7 2.9-.9.8-1.8 1.7-.8 3.3 1 1.7 4.5 7.4 9.7 12 6.6 5.9 12.4 7.8 14.1 8.7 1.7.9 2.7.7 3.7-.4 1-1.1 4.2-4.9 5.3-6.6 1.1-1.7 2.2-1.4 3.7-.8 1.5.5 9.5 4.5 11.1 5.3 1.7.8 2.8 1.2 3.2 1.9.4.7.4 4.1-1.1 8.1-1.5 4-8.7 7.8-12 8.2-3.1.4-6.9.5-22.2-5.4-18.7-7.2-30.8-26.3-31.7-27.5-.9-1.2-7.5-9.9-7.5-18.9 0-9 4.8-13.4 6.4-15.2 1.6-1.8 3.4-2.2 4.6-2.2z" fill="#25D366"/>
</svg>
