<svg width="200" height="200" viewBox="0 0 200 200" xmlns="http://www.w3.org/2000/svg">
  <rect width="200" height="200" rx="40" fill="#EAF3FF"/>
  <rect x="50" y="45" width="100" height="115" rx="12" fill="#3A86FF"/>
  <!-- Screen -->
  <rect x="63" y="58" width="74" height="32" rx="6" fill="#D6EAFF"/>
  <text x="130" y="81" font-size="20" fill="#1A5FCC" text-anchor="end" font-family="Arial">0</text>
  <!-- Buttons row 1 -->
  <rect x="63" y="98" width="18" height="14" rx="4" fill="white" opacity="0.8"/>
  <rect x="86" y="98" width="18" height="14" rx="4" fill="white" opacity="0.8"/>
  <rect x="109" y="98" width="18" height="14" rx="4" fill="white" opacity="0.8"/>
  <rect x="132" y="98" width="5" height="14" rx="2" fill="#FFD166" opacity="0.9"/>
  <!-- Buttons row 2 -->
  <rect x="63" y="117" width="18" height="14" rx="4" fill="white" opacity="0.8"/>
  <rect x="86" y="117" width="18" height="14" rx="4" fill="white" opacity="0.8"/>
  <rect x="109" y="117" width="18" height="14" rx="4" fill="white" opacity="0.8"/>
  <rect x="132" y="117" width="5" height="14" rx="2" fill="#FFD166" opacity="0.9"/>
  <!-- Buttons row 3 -->
  <rect x="63" y="136" width="18" height="14" rx="4" fill="white" opacity="0.8"/>
  <rect x="86" y="136" width="18" height="14" rx="4" fill="white" opacity="0.8"/>
  <rect x="109" y="136" width="18" height="14" rx="4" fill="white" opacity="0.8"/>
  <rect x="132" y="136" width="5" height="14" rx="2" fill="#FFD166" opacity="0.9"/>
</svg>
